<?xml version="1.0" standalone="no"?>
<!DOCTYPE svg PUBLIC "-//W3C//DTD SVG 20010904//EN"
 "http://www.w3.org/TR/2001/REC-SVG-20010904/DTD/svg10.dtd">
<svg version="1.0" xmlns="http://www.w3.org/2000/svg"
 width="260.000000pt" height="260.000000pt" viewBox="0 0 260.000000 260.000000"
 preserveAspectRatio="xMidYMid meet">
<metadata>
Created by potrace 1.11, written by Peter Selinger 2001-2013
</metadata>
<g transform="translate(0.000000,260.000000) scale(0.100000,-0.100000)"
fill="#000000" stroke="none">
<path d="M784 2333 c-34 -6 -101 -70 -114 -108 -30 -92 -1 -167 84 -215 31
-19 48 -22 93 -17 31 3 63 13 74 23 10 9 19 13 19 8 0 -12 38 44 52 76 34 78
-4 179 -81 220 -25 13 -89 19 -127 13z"/>
<path d="M2095 1980 c-14 -22 -25 -41 -25 -44 0 -2 -29 -54 -65 -116 -36 -62
-65 -116 -65 -121 0 -5 -4 -9 -10 -9 -5 0 -12 -11 -16 -25 -3 -13 -13 -26 -22
-29 -10 -2 -110 -3 -225 -2 -131 0 -207 -3 -208 -9 -9 -78 -10 -75 40 -76 51
0 390 0 433 1 21 0 29 6 34 25 3 14 10 25 16 25 5 0 6 5 3 10 -3 6 -2 10 2 10
5 0 14 12 20 28 7 15 23 45 36 67 13 22 39 67 57 100 18 33 38 63 44 67 6 4 8
8 3 8 -4 0 5 19 19 42 26 40 26 42 8 55 -48 36 -52 35 -79 -7z"/>
<path d="M694 1923 c-11 -8 -18 -16 -16 -19 5 -6 -8 -64 -19 -84 -11 -21 -21
-51 -26 -75 -4 -20 -38 -124 -53 -160 -5 -11 -16 -45 -25 -75 -9 -30 -19 -62
-22 -70 -3 -8 -7 -19 -9 -25 -1 -5 -20 -63 -42 -127 -22 -64 -37 -119 -34
-123 3 -3 -1 -5 -8 -5 -7 0 -11 -3 -7 -6 3 -3 -3 -28 -13 -54 -10 -26 -16 -51
-13 -54 4 -3 2 -6 -4 -6 -10 0 -14 -29 -4 -31 3 0 15 -3 26 -5 30 -7 243 -7
254 0 5 4 12 2 16 -3 3 -7 15 -7 30 -1 15 6 27 6 30 0 3 -6 15 -6 30 0 15 6
27 6 30 0 3 -6 15 -6 30 0 14 5 27 5 30 0 3 -5 18 -5 35 0 17 5 30 6 30 2 0
-4 33 -6 73 -5 l72 1 0 -331 c-1 -183 1 -339 3 -348 3 -13 19 -16 105 -14 56
1 106 3 110 3 9 2 8 911 -1 913 -4 1 -115 3 -247 4 -147 1 -239 5 -238 11 1 5
5 36 8 69 4 33 9 69 11 80 3 11 7 40 10 65 8 66 14 102 20 112 3 4 110 8 237
7 304 0 280 -2 274 16 -4 8 -3 17 2 19 4 3 6 24 3 48 -2 24 -4 52 -5 63 -2 19
-10 20 -242 21 -227 2 -240 3 -239 20 2 39 16 139 19 144 2 3 0 12 -5 20 -12
20 -190 22 -216 3z"/>
<path d="M1061 1508 c-5 -14 -6 -79 -2 -138 1 -13 32 -15 219 -14 119 0 222
-1 228 -3 7 -3 10 -171 10 -535 -1 -400 2 -532 11 -535 10 -4 135 -7 173 -4
13 1 15 66 15 536 0 351 3 536 10 538 5 2 110 3 231 3 l221 -1 0 82 c0 52 -5
83 -11 84 -9 0 -53 0 -141 -2 -5 0 -89 1 -186 2 -97 1 -182 -2 -189 -6 -7 -5
-11 -4 -7 1 3 5 -115 9 -285 9 -264 0 -291 -2 -297 -17z"/>
<path d="M435 938 c-2 -7 -3 -26 -2 -43 l2 -30 118 -3 c64 -1 118 -6 118 -10
1 -4 2 -135 3 -292 l1 -284 48 -1 c26 -1 53 2 60 7 9 6 9 8 -1 8 -9 0 -10 5
-3 18 5 10 6 23 3 29 -9 14 -7 71 3 96 4 10 3 17 -4 17 -8 0 -9 6 -2 18 6 11
6 24 1 32 -5 8 -5 19 0 25 5 6 5 17 0 25 -5 8 -4 22 2 33 7 14 7 22 0 26 -7 4
-8 12 -2 21 5 8 5 21 -1 32 -6 12 -6 25 2 39 8 15 8 24 1 28 -7 4 -8 12 -2 21
5 8 5 21 -1 32 -5 10 -6 18 -1 18 5 0 7 14 4 30 l-4 30 123 0 124 0 -1 37 c-1
21 -2 41 -3 46 -1 4 -132 7 -291 7 -224 0 -292 -3 -295 -12z"/>
</g>
</svg>
